<?xml version="1.0" encoding="utf-8"?>
<!-- Generator: Adobe Illustrator 15.0.2, SVG Export Plug-In . SVG Version: 6.00 Build 0)  -->
<!DOCTYPE svg PUBLIC "-//W3C//DTD SVG 1.1//EN" "http://www.w3.org/Graphics/SVG/1.1/DTD/svg11.dtd">
<svg version="1.1" id="Calque_1" xmlns="http://www.w3.org/2000/svg" xmlns:xlink="http://www.w3.org/1999/xlink" x="0px" y="0px"
	 width="24px" height="24px" viewBox="0 0 24 24" enable-background="new 0 0 24 24" xml:space="preserve">
<g>
	<path fill="#2D2D2D" d="M3.41,5l7.879,7.882c0.188,0.188,0.439,0.292,0.711,0.292s0.523-0.104,0.711-0.292L20.592,5H3.41z"/>
	<g>
		<path fill="#2D2D2D" d="M15.015,12.016l-1.569,1.568c-0.387,0.389-0.9,0.583-1.413,0.583s-1.023-0.194-1.413-0.583l-1.601-1.601
			L2.421,18.58c-0.043,0.046-0.087,0.08-0.131,0.118C2.473,18.884,2.727,19,3.007,19h17.987c0.281,0,0.533-0.116,0.717-0.302
			c-0.046-0.038-0.089-0.072-0.131-0.118L15.015,12.016z"/>
	</g>
	<g>
		<path fill="#2D2D2D" d="M2.454,5.419C2.403,5.368,2.368,5.318,2.326,5.27C2.128,5.454,2.002,5.713,2.002,6.003v11.588l6.312-6.313
			L2.454,5.419z"/>
		<path fill="#2D2D2D" d="M21.611,5.419l-5.895,5.894l6.281,6.279V6.003c0-0.273-0.111-0.52-0.287-0.7
			C21.676,5.341,21.65,5.379,21.611,5.419z"/>
	</g>
</g>
</svg>
