<?xml version="1.0" encoding="utf-8"?>
<!-- Generator: Adobe Illustrator 15.0.2, SVG Export Plug-In . SVG Version: 6.00 Build 0)  -->
<!DOCTYPE svg PUBLIC "-//W3C//DTD SVG 1.1//EN" "http://www.w3.org/Graphics/SVG/1.1/DTD/svg11.dtd">
<svg version="1.1" id="Calque_1" xmlns="http://www.w3.org/2000/svg" xmlns:xlink="http://www.w3.org/1999/xlink" x="0px" y="0px"
	 width="24px" height="24px" viewBox="0 0 24 24" enable-background="new 0 0 24 24" xml:space="preserve">
<g opacity="0.5">
	<path fill="#2D2D2D" d="M21.126,11.988L12.51,4.133c-0.13-0.119-0.314-0.147-0.509-0.125c-0.196-0.022-0.379,0.006-0.511,0.125
		l-8.615,7.855c-0.311,0.284-0.227,0.881,0.188,1.335c0.415,0.455,1.002,0.595,1.312,0.31L12,6.682l7.625,6.952
		c0.311,0.284,0.898,0.146,1.313-0.308C21.353,12.869,21.437,12.272,21.126,11.988z"/>
	<path fill="#2D2D2D" d="M12.307,7.843c-0.15-0.132-0.398-0.134-0.549-0.002l-5.74,4.991c-0.151,0.132-0.275,0.404-0.275,0.605
		v6.196c0,0.202,0.164,0.367,0.365,0.367h3.683c0.2,0,0.365-0.165,0.365-0.367v-4.774c0-0.203,0.164-0.367,0.365-0.367h2.954
		c0.202,0,0.366,0.164,0.366,0.367v4.774c0,0.202,0.164,0.367,0.365,0.367h3.646c0.2,0,0.364-0.165,0.364-0.367v-6.196
		c0-0.203-0.12-0.474-0.275-0.606L12.307,7.843z"/>
	<path fill="#2D2D2D" d="M17.944,8.377c0.147,0.135,0.27,0.082,0.27-0.119V5.377c0-0.2-0.164-0.365-0.365-0.365h-2.15
		c-0.203,0-0.367,0.164-0.367,0.365v0.255c0,0.201,0.121,0.475,0.272,0.61L17.944,8.377z"/>
</g>
</svg>
