<?xml version="1.0" encoding="utf-8"?>
<!-- Generator: Adobe Illustrator 15.0.2, SVG Export Plug-In . SVG Version: 6.00 Build 0)  -->
<!DOCTYPE svg PUBLIC "-//W3C//DTD SVG 1.1//EN" "http://www.w3.org/Graphics/SVG/1.1/DTD/svg11.dtd">
<svg version="1.1" id="Calque_1" xmlns="http://www.w3.org/2000/svg" xmlns:xlink="http://www.w3.org/1999/xlink" x="0px" y="0px"
	 width="24px" height="24px" viewBox="28 0 24 24" enable-background="new 28 0 24 24" xml:space="preserve">
<g>
	<g>
		<circle fill="#6AA319" cx="40" cy="12" r="8"/>
	</g>
	<g>
		
			<radialGradient id="SVGID_1_" cx="-259.6001" cy="-252.4727" r="7.4995" gradientTransform="matrix(-4.371139e-008 -1 -1.5 6.556708e-008 -338.7094 -247.6)" gradientUnits="userSpaceOnUse">
			<stop  offset="0" style="stop-color:#75B228"/>
			<stop  offset="0.1599" style="stop-color:#80B830"/>
			<stop  offset="0.4441" style="stop-color:#9FC944"/>
			<stop  offset="0.8171" style="stop-color:#CFE464"/>
			<stop  offset="0.8284" style="stop-color:#D1E565"/>
		</radialGradient>
		<circle fill="url(#SVGID_1_)" cx="40" cy="12" r="7.5"/>
	</g>
	<path fill="#69A218" d="M43.313,10.625h-1.979V8.688c0-0.549-0.45-1-1-1h-0.75c-0.55,0-1,0.451-1,1v1.938h-1.896
		c-0.55,0-1,0.451-1,1v0.75c0,0.552,0.45,1,1,1h1.896v1.938c0,0.551,0.45,1,1,1h0.75c0.55,0,1-0.449,1-1v-1.938h1.979
		c0.551,0,1-0.448,1-1v-0.75C44.313,11.076,43.861,10.625,43.313,10.625z"/>
	<g opacity="0.2">
		<path d="M40.334,8.188c0.271,0,0.5,0.229,0.5,0.5v1.938v0.5h0.5h1.979c0.271,0,0.5,0.229,0.5,0.5v0.75c0,0.274-0.225,0.5-0.5,0.5
			h-1.979h-0.5v0.5v1.938c0,0.274-0.225,0.5-0.5,0.5h-0.75c-0.276,0-0.5-0.226-0.5-0.5v-1.938v-0.5h-0.5h-1.896
			c-0.276,0-0.5-0.226-0.5-0.5v-0.75c0-0.271,0.229-0.5,0.5-0.5h1.896h0.5v-0.5V8.688c0-0.271,0.229-0.5,0.5-0.5H40.334
			 M40.334,7.688h-0.75c-0.55,0-1,0.451-1,1v1.938h-1.896c-0.55,0-1,0.451-1,1v0.75c0,0.552,0.45,1,1,1h1.896v1.938
			c0,0.551,0.45,1,1,1h0.75c0.55,0,1-0.449,1-1v-1.938h1.979c0.551,0,1-0.448,1-1v-0.75c0-0.549-0.449-1-1-1h-1.979V8.688
			C41.334,8.139,40.884,7.688,40.334,7.688L40.334,7.688z"/>
	</g>
	<g opacity="0.45">
		<path fill="#FFFFFE" d="M40.334,7.688c0.55,0,1,0.451,1,1v1.938h1.979c0.551,0,1,0.451,1,1v0.75c0,0.552-0.449,1-1,1h-1.979v1.938
			c0,0.551-0.45,1-1,1h-0.75c-0.55,0-1-0.449-1-1v-1.938h-1.896c-0.55,0-1-0.448-1-1v-0.75c0-0.549,0.45-1,1-1h1.896V8.688
			c0-0.549,0.45-1,1-1H40.334 M40.334,7.188h-0.75c-0.827,0-1.5,0.673-1.5,1.5v1.438h-1.396c-0.827,0-1.5,0.673-1.5,1.5v0.75
			c0,0.827,0.673,1.5,1.5,1.5h1.396v1.438c0,0.826,0.673,1.5,1.5,1.5h0.75c0.827,0,1.5-0.674,1.5-1.5v-1.438h1.479
			c0.828,0,1.5-0.673,1.5-1.5v-0.75c0-0.827-0.672-1.5-1.5-1.5h-1.479V8.688C41.834,7.86,41.161,7.188,40.334,7.188L40.334,7.188z"
			/>
	</g>
	<circle opacity="0.25" fill="#FFFFFE" enable-background="new    " cx="40" cy="12" r="8"/>
</g>
</svg>
