<?xml version="1.0" encoding="utf-8"?>
<!-- Generator: Adobe Illustrator 15.0.0, SVG Export Plug-In . SVG Version: 6.00 Build 0)  -->
<!DOCTYPE svg PUBLIC "-//W3C//DTD SVG 1.1//EN" "http://www.w3.org/Graphics/SVG/1.1/DTD/svg11.dtd">
<svg version="1.1" id="Calque_1" xmlns="http://www.w3.org/2000/svg" xmlns:xlink="http://www.w3.org/1999/xlink" x="0px" y="0px"
	 width="80px" height="24px" viewBox="0 0 80 24" enable-background="new 0 0 80 24" xml:space="preserve">
<g>
	
		<linearGradient id="SVGID_1_" gradientUnits="userSpaceOnUse" x1="801.9199" y1="570.1992" x2="801.9199" y2="594.1992" gradientTransform="matrix(1 0 0 1 -761.9199 -570.1992)">
		<stop  offset="0" style="stop-color:#24CFDE"/>
		<stop  offset="1" style="stop-color:#1DA9B6"/>
	</linearGradient>
	<path fill="url(#SVGID_1_)" d="M80,20c0,2.2-1.8,4-4,4H4c-2.2,0-4-1.8-4-4V4c0-2.2,1.8-4,4-4h72c2.2,0,4,1.8,4,4V20z"/>
</g>
<g>
	<path fill="#FFFFFF" d="M79.5,19.5c0,2.2-1.8,4-4,4h-71c-2.2,0-4-1.8-4-4V4c0-2.2,1.8-4,4-4h71c2.2,0,4,1.8,4,4V19.5z"/>
</g>
<g opacity="0.75">
	<path d="M78,20c0,1.1-0.9,2-2,2H4c-1.1,0-2-0.9-2-2V4c0-1.1,0.9-2,2-2h72c1.1,0,2,0.9,2,2V20z"/>
</g>
<g>
	
		<linearGradient id="SVGID_2_" gradientUnits="userSpaceOnUse" x1="801.9199" y1="572.6992" x2="801.9199" y2="591.6992" gradientTransform="matrix(1 0 0 1 -761.9199 -570.1992)">
		<stop  offset="0" style="stop-color:#E8C6B0"/>
		<stop  offset="1" style="stop-color:#EEEBE8"/>
	</linearGradient>
	<path fill="url(#SVGID_2_)" d="M77.5,19.5c0,1.1-0.9,2-2,2h-71c-1.1,0-2-0.9-2-2v-15c0-1.1,0.9-2,2-2h71c1.1,0,2,0.9,2,2V19.5z"/>
</g>
<g opacity="0.08">
	<path fill="#FFFFFE" d="M77.5,19.5c0,1.1-0.9,2-2,2h-71c-1.1,0-2-0.9-2-2v-15c0-1.1,0.9-2,2-2h71c1.1,0,2,0.9,2,2V19.5z"/>
</g>
</svg>
