<?xml version="1.0" encoding="utf-8"?>
<!-- Generator: Adobe Illustrator 15.0.2, SVG Export Plug-In . SVG Version: 6.00 Build 0)  -->
<!DOCTYPE svg PUBLIC "-//W3C//DTD SVG 1.1//EN" "http://www.w3.org/Graphics/SVG/1.1/DTD/svg11.dtd">
<svg version="1.1" id="Calque_1" xmlns="http://www.w3.org/2000/svg" xmlns:xlink="http://www.w3.org/1999/xlink" x="0px" y="0px"
	 width="24px" height="24px" viewBox="28 0 24 24" enable-background="new 28 0 24 24" xml:space="preserve">
<g>
	<g>
		<g>
			<polygon fill="#FAFAFA" points="35.729,10.364 35.374,5.552 44.674,5.552 44.25,10.364 			"/>
			<path fill="#B3B3B3" d="M44.51,5.702l-0.396,4.512h-8.245l-0.331-4.512H44.51 M44.84,5.4h-9.628l0.377,5.114h8.8L44.84,5.4
				L44.84,5.4z"/>
		</g>
		<g>
			<polygon fill="#FAFAFA" points="35.113,18.449 36.165,14.877 43.852,14.877 44.936,18.449 			"/>
			<path fill="#B3B3B3" d="M43.739,15.027l0.995,3.271h-9.421l0.964-3.271H43.739 M43.962,14.727h-7.909L34.912,18.6h10.229
				L43.962,14.727L43.962,14.727z"/>
		</g>
		<g>
			
				<linearGradient id="SVGID_1_" gradientUnits="userSpaceOnUse" x1="431.9365" y1="-270.6797" x2="431.9365" y2="-264.9199" gradientTransform="matrix(1 0 0 -1 -391.96 -254.5996)">
				<stop  offset="0" style="stop-color:#393939"/>
				<stop  offset="0.8284" style="stop-color:#7A7C80"/>
				<stop  offset="0.8343" style="stop-color:#393939"/>
				<stop  offset="0.8662" style="stop-color:#474748"/>
				<stop  offset="0.9535" style="stop-color:#67696C"/>
				<stop  offset="1" style="stop-color:#74767A"/>
			</linearGradient>
			<polygon fill="url(#SVGID_1_)" points="44.539,16.08 44.539,14.914 35.438,14.914 35.438,16.08 32.807,16.08 32.105,15.314 
				32.148,11.417 33.326,10.32 46.684,10.364 47.848,11.481 47.848,15.441 47.15,16.08 			"/>
			<path fill="#232323" d="M46.564,10.515l1.133,1.035v3.767l-0.612,0.613h-2.397v-0.865v-0.301h-0.299h-8.8h-0.301v0.301v0.865
				H32.93l-0.632-0.633v-3.753l1.045-1.029H46.564 M46.684,10.214H33.219l-1.221,1.203v4.004l0.809,0.81h2.782v-1.166h8.8v1.166
				h2.818l0.791-0.789v-4.024L46.684,10.214L46.684,10.214z"/>
		</g>
		<rect x="45.936" y="13.285" opacity="0.25" fill="#A2FF00" enable-background="new    " width="0.746" height="0.746"/>
		<rect x="46.145" y="13.438" fill="#A2FF00" width="0.388" height="0.388"/>
	</g>
	<g opacity="0.25">
		<g>
			<polygon fill="#FFFFFE" points="35.733,10.364 35.379,5.552 44.678,5.552 44.254,10.364 			"/>
			<path fill="#FFFFFE" d="M44.514,5.702l-0.396,4.512h-8.245l-0.331-4.512H44.514 M44.844,5.4h-9.628l0.377,5.115h8.799L44.844,5.4
				L44.844,5.4z"/>
		</g>
		<g>
			<polygon fill="#FFFFFE" points="35.117,18.449 36.169,14.877 43.855,14.877 44.939,18.449 			"/>
			<path fill="#FFFFFE" d="M43.744,15.027l0.995,3.271h-9.422l0.964-3.271H43.744 M43.966,14.727h-7.909L34.916,18.6h10.229
				L43.966,14.727L43.966,14.727z"/>
		</g>
		<g>
			<polygon fill="#FFFFFE" points="44.543,16.08 44.543,14.914 35.442,14.914 35.442,16.08 32.811,16.08 32.109,15.314 
				32.152,11.418 33.33,10.32 46.688,10.364 47.852,11.481 47.852,15.441 47.155,16.08 			"/>
			<path fill="#FFFFFE" d="M46.568,10.516l1.134,1.034v3.767L47.09,15.93h-2.396v-0.865v-0.301h-0.301h-8.799h-0.301v0.301v0.865
				h-2.357l-0.632-0.633v-3.753l1.045-1.028H46.568 M46.688,10.214H33.224l-1.222,1.204v4.004l0.809,0.809h2.782v-1.166h8.799v1.166
				h2.818l0.791-0.789v-4.022L46.688,10.214L46.688,10.214z"/>
		</g>
		<rect x="45.941" y="13.285" opacity="0.25" fill="#FFFFFE" enable-background="new    " width="0.746" height="0.746"/>
		<rect x="46.148" y="13.438" fill="#FFFFFE" width="0.388" height="0.388"/>
	</g>
</g>
</svg>
