<?xml version="1.0" encoding="utf-8"?>
<!-- Generator: Adobe Illustrator 15.0.2, SVG Export Plug-In . SVG Version: 6.00 Build 0)  -->
<!DOCTYPE svg PUBLIC "-//W3C//DTD SVG 1.1//EN" "http://www.w3.org/Graphics/SVG/1.1/DTD/svg11.dtd">
<svg version="1.1" id="Calque_1" xmlns="http://www.w3.org/2000/svg" xmlns:xlink="http://www.w3.org/1999/xlink" x="0px" y="0px"
	 width="24px" height="24px" viewBox="0 0 24 24" enable-background="new 0 0 24 24" xml:space="preserve">
<path fill="#2D2D2D" d="M11.99,4C7.48,4,7.698,9.569,7.698,9.569s-0.626-0.082-0.626,0.842s0.653,0.924,0.653,0.924
	c0,0.951,1.82,2.526,1.82,2.526v0.543C5.661,14.403,4.601,20,4.601,20h14.798c0,0-1.06-5.597-4.944-5.597V13.86
	c0,0,1.82-1.575,1.82-2.526c0,0,0.652,0,0.652-0.924c0-0.923-0.625-0.842-0.625-0.842S16.52,4,12.011,4H11.99z"/>
</svg>
