<?xml version="1.0" encoding="utf-8"?>
<!-- Generator: Adobe Illustrator 15.0.2, SVG Export Plug-In . SVG Version: 6.00 Build 0)  -->
<!DOCTYPE svg PUBLIC "-//W3C//DTD SVG 1.1//EN" "http://www.w3.org/Graphics/SVG/1.1/DTD/svg11.dtd">
<svg version="1.1" id="Calque_1" xmlns="http://www.w3.org/2000/svg" xmlns:xlink="http://www.w3.org/1999/xlink" x="0px" y="0px"
	 width="24px" height="24px" viewBox="28 0 24 24" enable-background="new 28 0 24 24" xml:space="preserve">
<g>
	<g>
		<g>
			<circle fill="#C73D3D" cx="40" cy="11.999" r="8"/>
		</g>
		<g>
			
				<radialGradient id="SVGID_1_" cx="-1397.9995" cy="-1267.0322" r="7.4986" gradientTransform="matrix(-4.371139e-008 -1 -1.5 6.556708e-008 -1860.5492 -1386.0005)" gradientUnits="userSpaceOnUse">
				<stop  offset="0" style="stop-color:#D43939"/>
				<stop  offset="0.3586" style="stop-color:#D53B3B"/>
				<stop  offset="0.5227" style="stop-color:#D64343"/>
				<stop  offset="0.6472" style="stop-color:#D94F4F"/>
				<stop  offset="0.7518" style="stop-color:#DE6161"/>
				<stop  offset="0.8437" style="stop-color:#E47979"/>
				<stop  offset="0.9256" style="stop-color:#EB9696"/>
				<stop  offset="1" style="stop-color:#F3B7B7"/>
			</radialGradient>
			<circle fill="url(#SVGID_1_)" cx="40" cy="11.999" r="7.5"/>
		</g>
		<g>
			<g>
				<path fill="#C73D3D" d="M44.813,12.376c0,0.275-0.225,0.5-0.5,0.5h-8.626c-0.275,0-0.5-0.225-0.5-0.5v-0.75
					c0-0.274,0.225-0.5,0.5-0.5h8.626c0.275,0,0.5,0.226,0.5,0.5V12.376z"/>
			</g>
			<path opacity="0.2" enable-background="new    " d="M45.313,11.624c0-0.551-0.447-1-1-1h-6.688h-1.938
				c-0.548,0.002-0.999,0.451-0.999,1v0.75c0,0.551,0.451,1,1,1h1.938h6.689c0.551,0,1-0.449,1-1L45.313,11.624z M44.813,12.376
				c0,0.275-0.225,0.5-0.5,0.5h-1.938h-1.5l0,0h-3.252h-1.936c-0.271,0-0.501-0.23-0.5-0.5l-0.001-0.75c0-0.271,0.229-0.5,0.5-0.5
				h1.938l0,0h3.25h1.502h1.938c0.271,0,0.498,0.227,0.498,0.5V12.376z"/>
			<g opacity="0.45">
				<path fill="#FFFFFE" d="M44.314,10.124h-1.44h-5.748h-1.439c-0.828,0-1.502,0.672-1.5,1.5v0.748c0,0.828,0.674,1.502,1.5,1.5
					l1.439,0.002l5.748-0.002l1.44,0.002c0.826,0,1.498-0.672,1.498-1.5v-0.75C45.813,10.798,45.143,10.124,44.314,10.124z
					 M44.313,13.372h-1.938l0,0h-4.75h-1.937c-0.549,0-1-0.449-1-1v-0.75c0-0.549,0.451-1,0.999-1h1.938h4.75h1.938
					c0.553,0,1,0.449,1,1l0.002,0.75C45.313,12.923,44.864,13.372,44.313,13.372z"/>
			</g>
		</g>
	</g>
	<g opacity="0.25">
		<g>
			<circle fill="#FFFFFE" cx="40" cy="12.001" r="8"/>
		</g>
		<g>
			<circle fill="#FFFFFE" cx="40" cy="12.001" r="7.5"/>
		</g>
		<g>
			<g>
				<path fill="#FFFFFE" d="M44.813,12.378c0,0.275-0.225,0.5-0.5,0.5h-8.626c-0.275,0-0.5-0.225-0.5-0.5v-0.75
					c0-0.275,0.225-0.5,0.5-0.5h8.626c0.275,0,0.5,0.225,0.5,0.5V12.378z"/>
			</g>
			<path opacity="0.2" fill="#FFFFFE" enable-background="new    " d="M45.311,11.626c0-0.551-0.446-1-1-1h-6.688h-1.938
				c-0.548,0.002-0.999,0.451-0.999,1v0.75c0,0.551,0.451,1,1,1h1.938h6.688c0.552,0,1-0.449,1-1L45.311,11.626z M44.813,12.378
				c0,0.275-0.225,0.5-0.5,0.5h-1.938h-1.5l0,0h-3.252h-1.937c-0.271,0-0.501-0.23-0.5-0.5l-0.001-0.75c0-0.271,0.229-0.5,0.5-0.5
				h1.938l0,0h3.25h1.502h1.939c0.271,0,0.498,0.227,0.498,0.5V12.378L44.813,12.378z"/>
			<g opacity="0.45">
				<path fill="#FFFFFE" d="M44.314,10.126h-1.44h-5.748h-1.44c-0.828,0-1.502,0.672-1.5,1.5v0.748c0,0.828,0.674,1.501,1.5,1.5
					l1.439,0.002l5.748-0.002l1.441,0.002c0.826,0,1.498-0.672,1.498-1.5v-0.75C45.813,10.8,45.141,10.126,44.314,10.126z
					 M44.313,13.374h-1.938l0,0h-4.75h-1.938c-0.549,0-1-0.449-1-1v-0.75c0-0.549,0.451-1,0.999-1h1.938h4.75h1.938
					c0.554,0,1,0.449,1,1l0.002,0.75C45.313,12.925,44.864,13.374,44.313,13.374z"/>
			</g>
		</g>
	</g>
</g>
</svg>
