<?xml version="1.0" encoding="utf-8"?>
<!-- Generator: Adobe Illustrator 15.0.2, SVG Export Plug-In . SVG Version: 6.00 Build 0)  -->
<!DOCTYPE svg PUBLIC "-//W3C//DTD SVG 1.1//EN" "http://www.w3.org/Graphics/SVG/1.1/DTD/svg11.dtd">
<svg version="1.1" id="Calque_1" xmlns="http://www.w3.org/2000/svg" xmlns:xlink="http://www.w3.org/1999/xlink" x="0px" y="0px"
	 width="22px" height="18px" viewBox="0 -1 22 18" enable-background="new 0 -1 22 18" xml:space="preserve">
<g>
	<rect x="2" y="1" fill="#EEEBE8" width="16" height="16"/>
	<g>
		<g>
			<rect x="3" y="14.498" fill="#808090" width="13.729" height="1"/>
			<rect x="3" y="12.498" fill="#808090" width="9.5" height="1"/>
			<rect x="3" y="10.498" fill="#808090" width="6.375" height="1"/>
		</g>
		<g>
			<path fill="#808090" d="M12.232,5.808c0.178-0.115,0.34-0.272,0.48-0.473c0.223-0.304,0.33-0.656,0.33-1.052
				c0-0.521-0.197-0.954-0.593-1.287c-0.39-0.327-0.894-0.493-1.498-0.493c-0.695,0-1.203,0.201-1.507,0.598L9.387,3.18l0.554,0.848
				l0.123-0.137c0.206-0.231,0.475-0.345,0.825-0.345c0.636,0,0.935,0.29,0.935,0.911c0,0.592-0.317,0.866-1,0.866h-0.183v1.009
				h0.213c0.367,0,0.651,0.1,0.869,0.309c0.215,0.205,0.32,0.469,0.32,0.805c0,0.738-0.354,1.082-1.109,1.082
				c-0.41,0-0.74-0.145-1.01-0.438L9.799,7.952L9.208,8.896l0.085,0.08c0.178,0.165,0.41,0.303,0.714,0.42
				c0.297,0.115,0.604,0.176,0.913,0.176c0.73,0,1.309-0.182,1.719-0.533c0.416-0.357,0.627-0.871,0.627-1.521
				c0-0.449-0.121-0.84-0.363-1.157C12.727,6.126,12.501,5.939,12.232,5.808z"/>
			<path fill="#808090" d="M16.521,2.593L16.48,2.646c-0.207,0.263-0.496,0.542-0.863,0.83C15.245,3.768,14.891,4,14.561,4.167
				l-0.078,0.038v1.178L15.82,4.55v4.933H17v-6.89H16.521z"/>
		</g>
	</g>
</g>
</svg>
