<?xml version="1.0" encoding="utf-8"?>
<!-- Generator: Adobe Illustrator 15.0.2, SVG Export Plug-In . SVG Version: 6.00 Build 0)  -->
<!DOCTYPE svg PUBLIC "-//W3C//DTD SVG 1.1//EN" "http://www.w3.org/Graphics/SVG/1.1/DTD/svg11.dtd">
<svg version="1.1" id="Calque_1" xmlns="http://www.w3.org/2000/svg" xmlns:xlink="http://www.w3.org/1999/xlink" x="0px" y="0px"
	 width="205px" height="205px" viewBox="0 0 205 205" enable-background="new 0 0 205 205" xml:space="preserve">
<g>
	<path fill="#FFFBFF" d="M47.169,13.662c5.544,1.931,9.52,7.2,9.52,13.403c0,7.838-6.352,14.189-14.189,14.189
		c-0.496,0-0.985-0.025-1.472-0.077c1.258-0.486,2.51-1.086,3.755-1.809c2.216-1.294,3.725-2.605,4.524-3.935
		c0.761-1.257,1.141-2.702,1.141-4.336c0-1.33-0.488-2.827-1.463-4.495c-0.979-1.667-1.464-2.787-1.464-3.357
		c0-0.812,0.541-1.586,1.622-2.32c1.088-0.734,1.628-1.126,1.628-1.179c0-0.052-0.019-0.107-0.055-0.17
		C49.058,17.026,47.876,15.055,47.169,13.662z"/>
	<path fill="#FFFBFF" d="M42.499,12.876c0.151,0,0.304,0.004,0.456,0.007c-1.401,0.434-2.657,1.038-3.766,1.805
		c-2.231,1.545-3.347,3.498-3.347,5.855c0,1.359,0.278,2.553,0.838,3.594c0.012,0.026,0.534,0.774,1.56,2.242
		c0.557,0.815,0.834,1.612,0.834,2.397c0,0.889-0.415,1.737-1.253,2.551c-0.533,0.503-1.312,1.056-2.338,1.652
		c-0.838,0.492-1.256,0.785-1.256,0.874c0,0.025,0.641,1.218,1.919,3.575c0.73,1.341,1.274,2.349,1.642,3.024
		c-5.521-1.94-9.479-7.199-9.479-13.388C28.311,19.228,34.661,12.876,42.499,12.876z"/>
</g>
</svg>
