<?xml version="1.0" encoding="utf-8"?>
<!-- Generator: Adobe Illustrator 15.0.2, SVG Export Plug-In . SVG Version: 6.00 Build 0)  -->
<!DOCTYPE svg PUBLIC "-//W3C//DTD SVG 1.1//EN" "http://www.w3.org/Graphics/SVG/1.1/DTD/svg11.dtd">
<svg version="1.1" id="Calque_1" xmlns="http://www.w3.org/2000/svg" xmlns:xlink="http://www.w3.org/1999/xlink" x="0px" y="0px"
	 width="80px" height="80px" viewBox="0 0 80 80" enable-background="new 0 0 80 80" xml:space="preserve">
<path fill="#FFFFFF" d="M48.811,3.42c0.051,0,0.063,0,0.021,0.01C48.818,3.42,48.818,3.42,48.811,3.42z"/>
<g>
	<path fill="#FFFBFF" d="M53.049,6.836c14.7,5.12,25.241,19.092,25.241,35.541C78.29,63.159,61.447,80,40.666,80
		c-1.316,0-2.613-0.067-3.901-0.205c3.332-1.288,6.653-2.879,9.955-4.796c5.874-3.43,9.875-6.907,11.997-10.435
		c2.015-3.332,3.023-7.164,3.023-11.497c0-3.527-1.294-7.496-3.878-11.918c-2.597-4.422-3.882-7.389-3.882-8.902
		c0-2.152,1.435-4.206,4.304-6.151c2.883-1.946,4.316-2.987,4.316-3.125s-0.05-0.285-0.147-0.452
		C58.057,15.758,54.924,10.53,53.049,6.836z"/>
	<path fill="#FFFBFF" d="M40.666,4.753c0.403,0,0.807,0.01,1.21,0.02c-3.716,1.15-7.046,2.751-9.986,4.786
		c-5.916,4.097-8.873,9.275-8.873,15.524c0,3.606,0.737,6.771,2.221,9.532c0.03,0.068,1.415,2.052,4.137,5.944
		c1.474,2.16,2.21,4.275,2.21,6.355c0,2.358-1.1,4.608-3.321,6.764c-1.415,1.333-3.479,2.8-6.2,4.381
		c-2.221,1.305-3.331,2.082-3.331,2.318c0,0.066,1.7,3.231,5.089,9.479c1.936,3.556,3.38,6.23,4.353,8.019
		C13.537,72.73,3.043,58.786,3.043,42.377C3.043,21.595,19.885,4.753,40.666,4.753z"/>
</g>
</svg>
