<?xml version="1.0" encoding="utf-8"?>
<!-- Generator: Adobe Illustrator 15.0.2, SVG Export Plug-In . SVG Version: 6.00 Build 0)  -->
<!DOCTYPE svg PUBLIC "-//W3C//DTD SVG 1.1//EN" "http://www.w3.org/Graphics/SVG/1.1/DTD/svg11.dtd">
<svg version="1.1" id="Calque_1" xmlns="http://www.w3.org/2000/svg" xmlns:xlink="http://www.w3.org/1999/xlink" x="0px" y="0px"
	 width="92px" height="56px" viewBox="0 0 92 56" enable-background="new 0 0 92 56" xml:space="preserve">
<path fill="#FFFFFF" d="M45.986,27.997c0.031,0,0.039,0,0.013,0.006C45.991,27.997,45.991,27.997,45.986,27.997z"/>
<g>
	<path fill="#FFFBFF" d="M53.532,6.382C62.474,9.496,68.885,17.995,68.885,28c0,12.642-10.244,22.885-22.885,22.885
		c-0.801,0-1.589-0.04-2.373-0.125c2.027-0.783,4.047-1.751,6.056-2.917c3.572-2.087,6.007-4.201,7.297-6.347
		c1.227-2.026,1.839-4.357,1.839-6.994c0-2.145-0.787-4.56-2.359-7.249c-1.578-2.689-2.36-4.494-2.36-5.414
		c0-1.31,0.873-2.559,2.618-3.741c1.753-1.185,2.625-1.817,2.625-1.901s-0.03-0.173-0.09-0.274
		C56.578,11.809,54.673,8.629,53.532,6.382z"/>
	<path fill="#FFFBFF" d="M46,5.115c0.245,0,0.49,0.006,0.736,0.012c-2.261,0.7-4.286,1.674-6.074,2.912
		c-3.599,2.491-5.397,5.641-5.397,9.442c0,2.193,0.448,4.118,1.351,5.798c0.019,0.041,0.861,1.248,2.517,3.615
		c0.896,1.313,1.345,2.601,1.345,3.865c0,1.435-0.669,2.803-2.021,4.114c-0.86,0.811-2.115,1.704-3.771,2.665
		c-1.352,0.794-2.026,1.267-2.026,1.41c0,0.04,1.034,1.965,3.095,5.765c1.178,2.164,2.057,3.79,2.648,4.878
		C29.499,46.463,23.115,37.981,23.115,28C23.115,15.359,33.36,5.115,46,5.115z"/>
</g>
</svg>
