<?xml version="1.0" encoding="utf-8"?>
<!-- Generator: Adobe Illustrator 15.0.2, SVG Export Plug-In . SVG Version: 6.00 Build 0)  -->
<!DOCTYPE svg PUBLIC "-//W3C//DTD SVG 1.1//EN" "http://www.w3.org/Graphics/SVG/1.1/DTD/svg11.dtd">
<svg version="1.1" id="Calque_1" xmlns="http://www.w3.org/2000/svg" xmlns:xlink="http://www.w3.org/1999/xlink" x="0px" y="0px"
	 width="205px" height="205px" viewBox="0 0 205 205" enable-background="new 0 0 205 205" xml:space="preserve">
<g>
	<path fill="#FFFBFF" d="M46.558,15.416c4.818,1.678,8.274,6.258,8.274,11.649c0,6.813-5.521,12.333-12.333,12.333
		c-0.431,0-0.856-0.021-1.28-0.066c1.094-0.423,2.182-0.944,3.264-1.573c1.926-1.125,3.237-2.264,3.932-3.42
		c0.661-1.093,0.992-2.349,0.992-3.769c0-1.156-0.424-2.458-1.272-3.907c-0.851-1.449-1.272-2.422-1.272-2.917
		c0-0.706,0.47-1.379,1.41-2.017c0.945-0.638,1.415-0.979,1.415-1.024c0-0.045-0.016-0.093-0.048-0.147
		C48.2,18.339,47.172,16.626,46.558,15.416z"/>
	<path fill="#FFFBFF" d="M42.499,14.732c0.131,0,0.265,0.003,0.396,0.006c-1.218,0.377-2.31,0.902-3.273,1.569
		c-1.939,1.343-2.909,3.041-2.909,5.089c0,1.181,0.242,2.219,0.729,3.124c0.01,0.022,0.464,0.672,1.356,1.948
		c0.484,0.708,0.725,1.401,0.725,2.083c0,0.772-0.361,1.51-1.089,2.217c-0.463,0.437-1.141,0.917-2.032,1.436
		c-0.728,0.428-1.091,0.683-1.091,0.76c0,0.021,0.557,1.059,1.667,3.107c0.635,1.166,1.107,2.042,1.427,2.628
		c-4.798-1.686-8.239-6.257-8.239-11.637C30.167,20.253,35.687,14.732,42.499,14.732z"/>
</g>
</svg>
