<?xml version="1.0" encoding="utf-8"?>
<!-- Generator: Adobe Illustrator 15.0.2, SVG Export Plug-In . SVG Version: 6.00 Build 0)  -->
<!DOCTYPE svg PUBLIC "-//W3C//DTD SVG 1.1//EN" "http://www.w3.org/Graphics/SVG/1.1/DTD/svg11.dtd">
<svg version="1.1" id="Calque_1" xmlns="http://www.w3.org/2000/svg" xmlns:xlink="http://www.w3.org/1999/xlink" x="0px" y="0px"
	 width="80px" height="80px" viewBox="0 0 80 80" enable-background="new 0 0 80 80" xml:space="preserve">
<path fill="#FFFFFF" d="M39.981,39.996c0.041,0,0.051,0,0.017,0.008C39.988,39.996,39.988,39.996,39.981,39.996z"/>
<g>
	<path fill="#FFFBFF" d="M49.874,11.66C61.597,15.743,70,26.885,70,40c0,16.573-13.428,30-30,30c-1.049,0-2.082-0.051-3.11-0.164
		c2.657-1.027,5.305-2.295,7.94-3.824c4.682-2.735,7.873-5.507,9.564-8.32c1.609-2.655,2.41-5.712,2.41-9.169
		c0-2.812-1.03-5.978-3.092-9.503c-2.068-3.524-3.094-5.891-3.094-7.098c0-1.717,1.144-3.355,3.432-4.904
		c2.297-1.553,3.441-2.382,3.441-2.492s-0.04-0.227-0.117-0.359C53.866,18.775,51.369,14.606,49.874,11.66z"/>
	<path fill="#FFFBFF" d="M40,10c0.322,0,0.643,0.008,0.965,0.016c-2.964,0.918-5.618,2.194-7.962,3.817
		c-4.718,3.266-7.075,7.396-7.075,12.378c0,2.874,0.586,5.397,1.771,7.6c0.024,0.053,1.128,1.636,3.298,4.739
		c1.174,1.721,1.764,3.411,1.764,5.067c0,1.881-0.877,3.675-2.649,5.393c-1.127,1.063-2.772,2.235-4.944,3.493
		c-1.771,1.041-2.655,1.661-2.655,1.849c0,0.053,1.355,2.576,4.056,7.558c1.544,2.837,2.697,4.969,3.472,6.395
		C18.369,64.203,10,53.082,10,40C10,23.428,23.431,10,40,10z"/>
</g>
</svg>
