<?xml version="1.0" encoding="utf-8"?>
<!-- Generator: Adobe Illustrator 15.0.2, SVG Export Plug-In . SVG Version: 6.00 Build 0)  -->
<!DOCTYPE svg PUBLIC "-//W3C//DTD SVG 1.1//EN" "http://www.w3.org/Graphics/SVG/1.1/DTD/svg11.dtd">
<svg version="1.1" id="Calque_1" xmlns="http://www.w3.org/2000/svg" xmlns:xlink="http://www.w3.org/1999/xlink" x="0px" y="0px"
	 width="80px" height="28px" viewBox="0 0 80 28" enable-background="new 0 0 80 28" xml:space="preserve">
<g id="Effet_NoPatch">
	
		<linearGradient id="SVGID_1_" gradientUnits="userSpaceOnUse" x1="1562.4512" y1="2243.252" x2="1616.6621" y2="2243.252" gradientTransform="matrix(1 0 0 1 -1542.0654 -2234.2852)">
		<stop  offset="0" style="stop-color:#0098C9"/>
		<stop  offset="0.0554" style="stop-color:#32ABD2"/>
		<stop  offset="0.1239" style="stop-color:#69C0DD"/>
		<stop  offset="0.1907" style="stop-color:#97D2E6"/>
		<stop  offset="0.2542" style="stop-color:#BBDFEC"/>
		<stop  offset="0.3136" style="stop-color:#D4E9F1"/>
		<stop  offset="0.3672" style="stop-color:#E4EFF4"/>
		<stop  offset="0.41" style="stop-color:#E9F1F5"/>
		<stop  offset="0.4693" style="stop-color:#E3EFF4"/>
		<stop  offset="0.547" style="stop-color:#D3E9F1"/>
		<stop  offset="0.6349" style="stop-color:#B8DEEC"/>
		<stop  offset="0.7303" style="stop-color:#92D0E5"/>
		<stop  offset="0.8318" style="stop-color:#61BEDC"/>
		<stop  offset="0.9367" style="stop-color:#27A8D1"/>
		<stop  offset="1" style="stop-color:#0099CA"/>
	</linearGradient>
	<path fill="url(#SVGID_1_)" d="M20.386,12.669c0,0,22.716-13.345,40.634-12.199c18.66,1.196,12.809,16.187,12.359,17.063
		c0,0,0.596-11.18-12.359-12.922C43.646,2.869,20.386,12.669,20.386,12.669z"/>
</g>
<g id="Calque_1_1_">
	<g>
		<path fill="#FFFBFF" d="M4.714,14.924l2.858,8.77l3.059-8.77h2.254l2.777,8.77l3.08-8.77h2.917l-5.534,13.109h-2.576l-2.536-7.65
			l-2.938,7.65H5.479c0,0-3.453-9.788-3.868-10.861C0.887,15.303,0,14.924,0,14.924H4.714z"/>
		<path fill="#FFFBFF" d="M43.238,14.924c0.422,0,4.566-0.083,5.011-0.083c3.36,0,5.856,0.083,7.587,2.214
			c1.107,1.344,1.288,3.079,1.288,4.028c0,3.228-1.812,5.458-4.347,6.39c-1.289,0.475-3.021,0.56-5.012,0.56h-4.527V14.924
			L43.238,14.924z M46.921,26.236h0.865c2.758,0,5.394,0,5.394-5.004c0-4.633-2.838-4.633-4.469-4.633
			c-0.502,0-1.188,0.021-1.79,0.021V26.236L46.921,26.236z"/>
		<polygon fill="#FFFBFF" points="67.137,16.891 67.137,18.561 61.779,18.561 61.779,21.373 66.555,21.373 66.555,23.007 
			61.779,23.007 61.779,26.259 67.357,26.259 67.357,28.034 58.65,28.034 58.65,16.891 		"/>
		<polygon fill="#FFFBFF" points="71.202,16.891 73.904,24.678 77.035,16.891 79.566,16.891 74.266,28.034 72.006,28.034 
			67.645,16.891 		"/>
		<path fill="#FFFBFF" d="M76.936,26.932c0-0.693,0.604-1.218,1.369-1.218c0.758,0,1.357,0.522,1.357,1.218
			c0,0.707-0.6,1.227-1.357,1.227C77.536,28.156,76.936,27.637,76.936,26.932z M78.305,28.4c0.913,0,1.695-0.621,1.695-1.469
			c0-0.844-0.782-1.464-1.695-1.464c-0.925,0-1.705,0.62-1.705,1.464C76.6,27.779,77.38,28.4,78.305,28.4z M77.947,27.047h0.339
			l0.511,0.732h0.328l-0.551-0.744c0.283-0.026,0.502-0.162,0.502-0.465c0-0.334-0.227-0.481-0.684-0.481h-0.736v1.69h0.291V27.047z
			 M77.947,26.83v-0.523h0.4c0.197,0,0.422,0.039,0.422,0.252c0,0.26-0.229,0.271-0.479,0.271H77.947z"/>
		<path fill="#FFFBFF" d="M38.191,16.891c1.059,0,1.905,0.223,2.542,0.668c0.681,0.479,1.018,1.188,1.018,2.127
			c0,0.986-0.4,1.684-1.208,2.099c-0.264,0.141-0.656,0.272-1.181,0.416c0.614,0.112,1.109,0.295,1.491,0.545
			c0.739,0.504,1.112,1.218,1.112,2.157c0,1.15-0.479,2.002-1.415,2.558c-0.619,0.362-1.352,0.544-2.193,0.544h-5.468V16.895h5.305
			L38.191,16.891L38.191,16.891z M36.06,21.773h0.642c0.614,0,1.06-0.102,1.335-0.303c0.182-0.145,0.33-0.363,0.446-0.672
			c0.115-0.303,0.174-0.627,0.174-0.98c0-1.151-0.584-1.723-1.749-1.723H36.06V21.773z M36.06,26.791h1.005
			c1.123,0,1.684-0.596,1.684-1.8c0-1.362-0.656-2.046-1.973-2.046H36.06V26.791z"/>
		<polygon fill="#FFFBFF" points="31.001,16.891 31.001,18.561 25.647,18.561 25.647,21.373 30.421,21.373 30.421,23.007 
			25.647,23.007 25.647,26.259 31.224,26.259 31.224,28.034 22.517,28.034 22.517,16.891 		"/>
	</g>
	<g>
		<path fill="#FFFBFF" d="M3.319,10.227v2.74H1.687V5.525c1.088-0.038,1.724-0.057,1.908-0.057c1.452,0,2.513,0.181,3.185,0.542
			C7.452,6.371,7.788,6.934,7.788,7.7c0,1.708-1.243,2.563-3.728,2.563C3.875,10.263,3.628,10.252,3.319,10.227z M3.319,6.668v2.384
			c0.276,0.023,0.494,0.036,0.653,0.036c0.745,0,1.289-0.101,1.632-0.303c0.342-0.201,0.514-0.529,0.514-0.984
			c0-0.772-0.768-1.154-2.304-1.154C3.643,6.643,3.478,6.652,3.319,6.668z"/>
		<path fill="#FFFBFF" d="M8.466,10.232c0-0.83,0.296-1.506,0.888-2.028c0.592-0.517,1.374-0.784,2.344-0.784
			c1.021,0,1.814,0.251,2.379,0.752c0.564,0.501,0.847,1.188,0.847,2.054c0,0.872-0.288,1.56-0.863,2.071
			c-0.575,0.51-1.363,0.768-2.363,0.768c-1.021,0-1.815-0.26-2.382-0.776C8.749,11.778,8.466,11.091,8.466,10.232z M10.098,10.232
			c0,1.2,0.534,1.803,1.601,1.803c0.49,0,0.877-0.155,1.164-0.467c0.287-0.308,0.43-0.752,0.43-1.329
			c0-1.187-0.531-1.773-1.594-1.773c-0.49,0-0.878,0.157-1.167,0.465C10.242,9.238,10.098,9.674,10.098,10.232z"/>
		<path fill="#FFFBFF" d="M22.705,13.069h-0.571l-1.845-3.342l-1.839,3.342h-0.577l-2.536-5.544h1.651l1.349,3.249l1.645-3.249
			h0.565l1.701,3.265l1.456-3.265h1.544L22.705,13.069z"/>
		<path fill="#FFFBFF" d="M32.124,10.634h-4.801c0.029,0.434,0.213,0.771,0.552,1.012s0.795,0.362,1.368,0.362
			c0.716,0,1.26-0.146,1.632-0.453l0.609,0.971c-0.552,0.361-1.376,0.547-2.473,0.547c-1.025,0-1.836-0.243-2.432-0.729
			c-0.596-0.486-0.895-1.165-0.895-2.041c0-0.857,0.328-1.553,0.982-2.084c0.654-0.532,1.44-0.797,2.357-0.797
			c0.975,0,1.757,0.234,2.347,0.709c0.59,0.467,0.885,1.071,0.885,1.8C32.256,10.084,32.212,10.319,32.124,10.634z M27.379,9.678
			h3.301c-0.109-0.796-0.653-1.195-1.632-1.195C28.153,8.483,27.597,8.882,27.379,9.678z"/>
		<path fill="#FFFBFF" d="M37.396,8.707c-0.28-0.148-0.588-0.223-0.923-0.223c-0.364,0-0.688,0.139-0.97,0.401
			C35.221,9.153,35.08,9.48,35.08,9.867v3.101h-1.568V7.524h1.568v0.498c0.439-0.4,1.023-0.599,1.751-0.599
			c0.536,0,0.946,0.065,1.23,0.197L37.396,8.707z"/>
		<path fill="#FFFBFF" d="M44.952,10.634H40.15c0.029,0.434,0.214,0.771,0.553,1.012s0.795,0.362,1.367,0.362
			c0.716,0,1.26-0.146,1.633-0.453l0.607,0.971c-0.559,0.361-1.377,0.547-2.479,0.547c-1.021,0-1.836-0.243-2.432-0.729
			c-0.597-0.486-0.895-1.165-0.895-2.041c0-0.857,0.327-1.553,0.982-2.084c0.654-0.532,1.439-0.797,2.354-0.797
			c0.979,0,1.76,0.234,2.35,0.709c0.595,0.467,0.89,1.071,0.89,1.8C45.084,10.084,45.04,10.319,44.952,10.634z M40.207,9.678h3.301
			c-0.107-0.796-0.652-1.195-1.632-1.195C40.98,8.483,40.425,8.882,40.207,9.678z"/>
		<path fill="#FFFBFF" d="M50.663,12.968v-0.331c-0.13,0.116-0.351,0.216-0.659,0.303s-0.63,0.134-0.96,0.134
			c-0.938,0-1.675-0.241-2.213-0.722c-0.537-0.481-0.808-1.155-0.808-2.013s0.31-1.56,0.927-2.103
			c0.616-0.541,1.391-0.811,2.319-0.811c0.51,0,0.975,0.085,1.394,0.255V5.494L52.23,5.19v7.778H50.663L50.663,12.968z
			 M50.663,8.825C50.328,8.604,49.979,8.5,49.613,8.5c-0.627,0-1.109,0.152-1.448,0.465c-0.339,0.309-0.509,0.753-0.509,1.334
			c0,1.132,0.674,1.698,2.021,1.698c0.148,0,0.335-0.037,0.556-0.109c0.225-0.068,0.363-0.142,0.436-0.222L50.663,8.825
			L50.663,8.825z"/>
		<path fill="#FFFBFF" d="M58.072,12.777l-0.225,0.26h-0.563V8.216l0.999-0.195v1.617c0.266-0.136,0.557-0.197,0.869-0.197
			c0.625,0,1.132,0.16,1.515,0.481c0.384,0.32,0.575,0.73,0.575,1.231c0,0.58-0.192,1.038-0.579,1.377
			c-0.388,0.337-0.909,0.507-1.567,0.507C58.697,13.033,58.357,12.948,58.072,12.777z M58.284,10.327v1.804
			c0.146,0.142,0.345,0.214,0.595,0.214c0.482,0,0.823-0.097,1.023-0.278c0.201-0.185,0.303-0.482,0.303-0.89
			c0-0.708-0.415-1.055-1.246-1.055C58.663,10.124,58.438,10.192,58.284,10.327z"/>
		<path fill="#FFFBFF" d="M63.941,13.525c-0.106,0.227-0.336,0.423-0.688,0.574c-0.353,0.153-0.758,0.229-1.226,0.229v-0.715
			c0.771,0,1.154-0.157,1.154-0.468c0-0.207-0.104-0.524-0.318-0.951L61.523,9.5h1.035l1.166,2.399L64.775,9.5h1.033L63.941,13.525z
			"/>
	</g>
</g>
</svg>
