<?xml version="1.0" encoding="utf-8"?>
<!-- Generator: Adobe Illustrator 15.0.0, SVG Export Plug-In . SVG Version: 6.00 Build 0)  -->
<!DOCTYPE svg PUBLIC "-//W3C//DTD SVG 1.1//EN" "http://www.w3.org/Graphics/SVG/1.1/DTD/svg11.dtd">
<svg version="1.1" id="Calque_1" xmlns="http://www.w3.org/2000/svg" xmlns:xlink="http://www.w3.org/1999/xlink" x="0px" y="0px"
	 width="36px" height="36px" viewBox="0 0 36 36" enable-background="new 0 0 36 36" xml:space="preserve">
<g>
	<path fill="#2AEDFF" d="M29.021,31H7.004c-1.08,0-1.957-0.908-1.957-2.021V7.021C5.047,5.907,5.924,5,7.004,5H29.02
		c1.08,0,1.957,0.907,1.957,2.021v21.958C30.977,30.092,30.1,31,29.021,31L29.021,31z"/>
	
		<linearGradient id="SVGID_1_" gradientUnits="userSpaceOnUse" x1="1661.5547" y1="2154.4404" x2="1661.5547" y2="2129.2051" gradientTransform="matrix(1 0 0 1 -1643.5547 -2123.4395)">
		<stop  offset="0" style="stop-color:#E8C6B0"/>
		<stop  offset="1" style="stop-color:#EEEBE8"/>
	</linearGradient>
	<path fill="url(#SVGID_1_)" d="M29.042,31H6.959C5.878,31,5,30.092,5,28.979V7.786c0-1.114,0.878-2.021,1.959-2.021h22.083
		c1.08,0,1.958,0.908,1.958,2.021v21.192C31,30.092,30.122,31,29.042,31L29.042,31z"/>
</g>
<polygon fill="#808090" points="13.777,11.117 13.777,24.882 24.691,17.999 "/>
</svg>
