<?xml version="1.0" encoding="utf-8"?>
<!-- Generator: Adobe Illustrator 15.0.0, SVG Export Plug-In . SVG Version: 6.00 Build 0)  -->
<!DOCTYPE svg PUBLIC "-//W3C//DTD SVG 1.1//EN" "http://www.w3.org/Graphics/SVG/1.1/DTD/svg11.dtd">
<svg version="1.1" id="Calque_1" xmlns="http://www.w3.org/2000/svg" xmlns:xlink="http://www.w3.org/1999/xlink" x="0px" y="0px"
	 width="384px" height="45px" viewBox="0 0 384 45" enable-background="new 0 0 384 45" xml:space="preserve">
<rect fill="#FFFFFF" width="384" height="15"/>
<rect fill="#FFFFFF" width="16" height="15"/>
<rect x="80" fill="#FFFFFF" width="16" height="15"/>
<rect x="96" fill="#FFFFFF" width="16" height="15"/>
<rect x="176" fill="#FFFFFF" width="16" height="15"/>
<rect x="192" fill="#FFFFFF" width="16" height="15"/>
<rect x="272" fill="#FFFFFF" width="16" height="15"/>
<rect x="288" fill="#FFFFFF" width="16" height="15"/>
<rect x="368" fill="#FFFFFF" width="16" height="15"/>
<polygon fill="#808090" points="2.426,35.506 2.426,44.494 7.574,40 "/>
<polygon fill="#808090" points="7.573,24.495 7.573,15.507 2.425,20.001 "/>
<polygon fill="#808090" points="17.573,24.496 17.573,15.508 12.425,20.002 "/>
<polygon fill="#808090" points="27.573,24.495 27.573,15.507 22.425,20.001 "/>
<polygon fill="#808090" points="37.573,24.495 37.573,15.507 32.425,20.001 "/>
<polygon fill="#808090" points="12.425,35.506 12.425,44.494 17.573,40 "/>
<polygon fill="#808090" points="22.425,35.506 22.425,44.494 27.573,40 "/>
<polygon fill="#808090" points="32.425,35.506 32.425,44.494 37.573,40 "/>
<g>
	<linearGradient id="SVGID_1_" gradientUnits="userSpaceOnUse" x1="64.0308" y1="15" x2="64.0308" y2="0">
		<stop  offset="0" style="stop-color:#E8C6B0"/>
		<stop  offset="1" style="stop-color:#EEEBE8"/>
	</linearGradient>
	<rect x="48.062" fill="url(#SVGID_1_)" width="31.938" height="15"/>
	<rect x="48.062" fill="#2AEDFF" width="31.938" height="1"/>
</g>
<g>
	<linearGradient id="SVGID_2_" gradientUnits="userSpaceOnUse" x1="160.0156" y1="15" x2="160.0156" y2="0">
		<stop  offset="0" style="stop-color:#E8C6B0"/>
		<stop  offset="1" style="stop-color:#EEEBE8"/>
	</linearGradient>
	<rect x="144.047" fill="url(#SVGID_2_)" width="31.938" height="15"/>
	<rect x="144.047" fill="#2AEDFF" width="31.938" height="1"/>
</g>
<g>
	<linearGradient id="SVGID_3_" gradientUnits="userSpaceOnUse" x1="256" y1="15" x2="256" y2="0">
		<stop  offset="0" style="stop-color:#E8C6B0"/>
		<stop  offset="1" style="stop-color:#EEEBE8"/>
	</linearGradient>
	<rect x="240.031" fill="url(#SVGID_3_)" width="31.938" height="15"/>
	<rect x="240.031" fill="#2AEDFF" width="31.938" height="1"/>
</g>
<g>
	<linearGradient id="SVGID_4_" gradientUnits="userSpaceOnUse" x1="352" y1="15" x2="352" y2="0">
		<stop  offset="0" style="stop-color:#E8C6B0"/>
		<stop  offset="1" style="stop-color:#EEEBE8"/>
	</linearGradient>
	<rect x="336.031" fill="url(#SVGID_4_)" width="31.938" height="15"/>
	<rect x="336.031" fill="#2AEDFF" width="31.938" height="1"/>
</g>
</svg>
